<mxfile host="app.diagrams.net" agent="Mozilla/5.0 (X11; Linux x86_64) AppleWebKit/537.36 (KHTML, like Gecko) Chrome/125.0.0.0 Safari/537.36" version="26.0.14">
  <diagram name="第 1 页" id="pUvbD-sDOu8XXTOp3dey">
    <mxGraphModel dx="2021" dy="599" grid="1" gridSize="10" guides="1" tooltips="1" connect="1" arrows="1" fold="1" page="1" pageScale="1" pageWidth="827" pageHeight="1169" math="0" shadow="0">
      <root>
        <mxCell id="0" />
        <mxCell id="1" parent="0" />
        <mxCell id="CRm00DYQyZ0VVpbbKeJJ-2" value="&lt;b&gt;&lt;font style=&quot;font-size: 15px;&quot;&gt;肝病有什么症状?&lt;/font&gt;&lt;/b&gt;" style="text;html=1;align=center;verticalAlign=middle;whiteSpace=wrap;rounded=0;fillColor=#f5f5f5;fontColor=#333333;strokeColor=#666666;" vertex="1" parent="1">
          <mxGeometry x="300" y="240" width="150" height="30" as="geometry" />
        </mxCell>
        <mxCell id="CRm00DYQyZ0VVpbbKeJJ-4" value="&lt;div class=&quot;paragraph&quot; style=&quot;padding: 0px; border: 0px; font-style: normal; font-variant-ligatures: normal; font-variant-caps: normal; font-variant-numeric: inherit; font-variant-east-asian: inherit; font-variant-alternates: inherit; font-variant-position: inherit; font-weight: 400; font-stretch: inherit; font-size: 14px; line-height: 24px; font-family: -apple-system, BlinkMacSystemFont, &amp;quot;Helvetica Neue&amp;quot;, Helvetica, &amp;quot;Segoe UI&amp;quot;, Arial, Roboto, &amp;quot;PingFang SC&amp;quot;, MIUI, &amp;quot;Hiragino Sans GB&amp;quot;, &amp;quot;Microsoft YaHei&amp;quot;, sans-serif; font-optical-sizing: inherit; font-kerning: inherit; font-feature-settings: inherit; font-variation-settings: inherit; vertical-align: baseline; display: block; margin-inline: 0px; margin: 0px 0px 0.859em; letter-spacing: 0.25px; max-width: 100%; overflow: auto hidden; text-wrap: wrap; color: rgb(6, 6, 7); orphans: 2; text-align: start; text-indent: 0px; text-transform: none; widows: 2; word-spacing: 0px; -webkit-text-stroke-width: 0px; text-decoration-thickness: initial; text-decoration-style: initial; text-decoration-color: initial; white-space-collapse: preserve !important; word-break: break-word !important;&quot;&gt;&lt;span&gt;肝病的症状主要包括：&lt;/span&gt;&lt;/div&gt;&lt;ol start=&quot;1&quot; style=&quot;padding: 0px 0px 0px 2em; border: 0px; font-style: normal; font-variant-ligatures: normal; font-variant-caps: normal; font-variant-numeric: inherit; font-variant-east-asian: inherit; font-variant-alternates: inherit; font-variant-position: inherit; font-weight: 400; font-stretch: inherit; font-size: 14px; line-height: inherit; font-family: -apple-system, BlinkMacSystemFont, &amp;quot;Helvetica Neue&amp;quot;, Helvetica, &amp;quot;Segoe UI&amp;quot;, Arial, Roboto, &amp;quot;PingFang SC&amp;quot;, MIUI, &amp;quot;Hiragino Sans GB&amp;quot;, &amp;quot;Microsoft YaHei&amp;quot;, sans-serif; font-optical-sizing: inherit; font-kerning: inherit; font-feature-settings: inherit; font-variation-settings: inherit; vertical-align: baseline; list-style: decimal; display: block; margin-block-end: 1em; margin-inline: 0px; padding-inline-start: 40px; margin: 0.859em 0px 0px; color: rgb(6, 6, 7); letter-spacing: 0.5px; orphans: 2; text-align: start; text-indent: 0px; text-transform: none; widows: 2; word-spacing: 0px; -webkit-text-stroke-width: 0px; white-space: normal; text-decoration-thickness: initial; text-decoration-style: initial; text-decoration-color: initial; background-color: rgb(255, 255, 255);&quot;&gt;&lt;li style=&quot;margin: 0px; padding: 0px; border: 0px; font-style: inherit; font-variant: inherit; font-weight: inherit; font-stretch: inherit; font-size: inherit; line-height: 24px; font-family: inherit; font-optical-sizing: inherit; font-kerning: inherit; font-feature-settings: inherit; font-variation-settings: inherit; vertical-align: baseline; display: list-item; text-align: -webkit-match-parent; letter-spacing: 0.25px;&quot;&gt;&lt;div class=&quot;paragraph&quot; style=&quot;padding: 0px; border: 0px; font-style: inherit; font-variant: inherit; font-weight: inherit; font-stretch: inherit; font-size: 14px; line-height: 24px; font-family: inherit; font-optical-sizing: inherit; font-kerning: inherit; font-feature-settings: inherit; font-variation-settings: inherit; vertical-align: baseline; display: block; margin-inline: 0px; margin: 0px; letter-spacing: 0.25px; max-width: 100%; overflow: visible; white-space: pre-wrap !important; word-break: break-word !important;&quot;&gt;&lt;span&gt;&lt;strong class=&quot;&quot; style=&quot;margin: 0px; padding: 0px; border: 0px; font-style: inherit; font-variant: inherit; font-weight: 700; font-stretch: inherit; font-size: inherit; line-height: inherit; font-family: inherit; font-optical-sizing: inherit; font-kerning: inherit; font-feature-settings: inherit; font-variation-settings: inherit; vertical-align: baseline;&quot;&gt;消化系统&lt;/strong&gt;：食欲不振、恶心、呕吐、腹胀、腹泻、黄疸。&lt;/span&gt;&lt;/div&gt;&lt;/li&gt;&lt;li style=&quot;margin: 0px; padding: 0px; border: 0px; font-style: inherit; font-variant: inherit; font-weight: inherit; font-stretch: inherit; font-size: inherit; line-height: 24px; font-family: inherit; font-optical-sizing: inherit; font-kerning: inherit; font-feature-settings: inherit; font-variation-settings: inherit; vertical-align: baseline; display: list-item; text-align: -webkit-match-parent; letter-spacing: 0.25px;&quot;&gt;&lt;div class=&quot;paragraph&quot; style=&quot;padding: 0px; border: 0px; font-style: inherit; font-variant: inherit; font-weight: inherit; font-stretch: inherit; font-size: 14px; line-height: 24px; font-family: inherit; font-optical-sizing: inherit; font-kerning: inherit; font-feature-settings: inherit; font-variation-settings: inherit; vertical-align: baseline; display: block; margin-inline: 0px; margin: 0px; letter-spacing: 0.25px; max-width: 100%; overflow: visible; white-space: pre-wrap !important; word-break: break-word !important;&quot;&gt;&lt;span&gt;&lt;strong class=&quot;&quot; style=&quot;margin: 0px; padding: 0px; border: 0px; font-style: inherit; font-variant: inherit; font-weight: 700; font-stretch: inherit; font-size: inherit; line-height: inherit; font-family: inherit; font-optical-sizing: inherit; font-kerning: inherit; font-feature-settings: inherit; font-variation-settings: inherit; vertical-align: baseline;&quot;&gt;全身症状&lt;/strong&gt;：乏力、体重变化、发热。&lt;/span&gt;&lt;/div&gt;&lt;/li&gt;&lt;li style=&quot;margin: 0px; padding: 0px; border: 0px; font-style: inherit; font-variant: inherit; font-weight: inherit; font-stretch: inherit; font-size: inherit; line-height: 24px; font-family: inherit; font-optical-sizing: inherit; font-kerning: inherit; font-feature-settings: inherit; font-variation-settings: inherit; vertical-align: baseline; display: list-item; text-align: -webkit-match-parent; letter-spacing: 0.25px;&quot;&gt;&lt;div class=&quot;paragraph&quot; style=&quot;padding: 0px; border: 0px; font-style: inherit; font-variant: inherit; font-weight: inherit; font-stretch: inherit; font-size: 14px; line-height: 24px; font-family: inherit; font-optical-sizing: inherit; font-kerning: inherit; font-feature-settings: inherit; font-variation-settings: inherit; vertical-align: baseline; display: block; margin-inline: 0px; margin: 0px; letter-spacing: 0.25px; max-width: 100%; overflow: visible; white-space: pre-wrap !important; word-break: break-word !important;&quot;&gt;&lt;span&gt;&lt;strong class=&quot;&quot; style=&quot;margin: 0px; padding: 0px; border: 0px; font-style: inherit; font-variant: inherit; font-weight: 700; font-stretch: inherit; font-size: inherit; line-height: inherit; font-family: inherit; font-optical-sizing: inherit; font-kerning: inherit; font-feature-settings: inherit; font-variation-settings: inherit; vertical-align: baseline;&quot;&gt;皮肤和黏膜&lt;/strong&gt;：皮肤瘙痒、蜘蛛痣、肝掌。&lt;/span&gt;&lt;/div&gt;&lt;/li&gt;&lt;li style=&quot;margin: 0px; padding: 0px; border: 0px; font-style: inherit; font-variant: inherit; font-weight: inherit; font-stretch: inherit; font-size: inherit; line-height: 24px; font-family: inherit; font-optical-sizing: inherit; font-kerning: inherit; font-feature-settings: inherit; font-variation-settings: inherit; vertical-align: baseline; display: list-item; text-align: -webkit-match-parent; letter-spacing: 0.25px;&quot;&gt;&lt;div class=&quot;paragraph&quot; style=&quot;padding: 0px; border: 0px; font-style: inherit; font-variant: inherit; font-weight: inherit; font-stretch: inherit; font-size: 14px; line-height: 24px; font-family: inherit; font-optical-sizing: inherit; font-kerning: inherit; font-feature-settings: inherit; font-variation-settings: inherit; vertical-align: baseline; display: block; margin-inline: 0px; margin: 0px; letter-spacing: 0.25px; max-width: 100%; overflow: visible; white-space: pre-wrap !important; word-break: break-word !important;&quot;&gt;&lt;span&gt;&lt;strong class=&quot;&quot; style=&quot;margin: 0px; padding: 0px; border: 0px; font-style: inherit; font-variant: inherit; font-weight: 700; font-stretch: inherit; font-size: inherit; line-height: inherit; font-family: inherit; font-optical-sizing: inherit; font-kerning: inherit; font-feature-settings: inherit; font-variation-settings: inherit; vertical-align: baseline;&quot;&gt;腹部症状&lt;/strong&gt;：肝区疼痛、腹胀、腹水。&lt;/span&gt;&lt;/div&gt;&lt;/li&gt;&lt;li style=&quot;margin: 0px; padding: 0px; border: 0px; font-style: inherit; font-variant: inherit; font-weight: inherit; font-stretch: inherit; font-size: inherit; line-height: 24px; font-family: inherit; font-optical-sizing: inherit; font-kerning: inherit; font-feature-settings: inherit; font-variation-settings: inherit; vertical-align: baseline; display: list-item; text-align: -webkit-match-parent; letter-spacing: 0.25px;&quot;&gt;&lt;div class=&quot;paragraph&quot; style=&quot;padding: 0px; border: 0px; font-style: inherit; font-variant: inherit; font-weight: inherit; font-stretch: inherit; font-size: 14px; line-height: 24px; font-family: inherit; font-optical-sizing: inherit; font-kerning: inherit; font-feature-settings: inherit; font-variation-settings: inherit; vertical-align: baseline; display: block; margin-inline: 0px; margin: 0px; letter-spacing: 0.25px; max-width: 100%; overflow: visible; white-space: pre-wrap !important; word-break: break-word !important;&quot;&gt;&lt;span&gt;&lt;strong class=&quot;&quot; style=&quot;margin: 0px; padding: 0px; border: 0px; font-style: inherit; font-variant: inherit; font-weight: 700; font-stretch: inherit; font-size: inherit; line-height: inherit; font-family: inherit; font-optical-sizing: inherit; font-kerning: inherit; font-feature-settings: inherit; font-variation-settings: inherit; vertical-align: baseline;&quot;&gt;其他&lt;/strong&gt;：出血倾向、尿液颜色加深、粪便颜色变浅、精神异常&lt;/span&gt;&lt;/div&gt;&lt;/li&gt;&lt;/ol&gt;" style="text;whiteSpace=wrap;html=1;fillColor=#f5f5f5;fontColor=#333333;strokeColor=#666666;" vertex="1" parent="1">
          <mxGeometry x="30" y="320" width="420" height="170" as="geometry" />
        </mxCell>
        <mxCell id="CRm00DYQyZ0VVpbbKeJJ-6" value="" style="sketch=0;pointerEvents=1;shadow=0;dashed=0;html=1;strokeColor=none;labelPosition=center;verticalLabelPosition=bottom;verticalAlign=top;outlineConnect=0;align=center;shape=mxgraph.office.users.user;fillColor=#2072B8;" vertex="1" parent="1">
          <mxGeometry x="470" y="210" width="46" height="50" as="geometry" />
        </mxCell>
        <mxCell id="CRm00DYQyZ0VVpbbKeJJ-7" value="" style="sketch=0;pointerEvents=1;shadow=0;dashed=0;html=1;labelPosition=center;verticalLabelPosition=bottom;verticalAlign=top;outlineConnect=0;align=center;shape=mxgraph.office.services.web_services;fillColor=#b1ddf0;strokeColor=#10739e;" vertex="1" parent="1">
          <mxGeometry x="-50" y="310" width="60" height="56" as="geometry" />
        </mxCell>
      </root>
    </mxGraphModel>
  </diagram>
</mxfile>
